<!DOCTYPE svg PUBLIC "-//W3C//DTD SVG 1.1//EN" "http://www.w3.org/Graphics/SVG/1.1/DTD/svg11.dtd">
<!-- Uploaded to: SVG Repo, www.svgrepo.com, Transformed by: SVG Repo Mixer Tools -->
<svg version="1.1" id="Layer_1" xmlns="http://www.w3.org/2000/svg" xmlns:xlink="http://www.w3.org/1999/xlink" viewBox="0 0 512 512" xml:space="preserve" width="800px" height="800px" fill="#000000">
<g id="SVGRepo_bgCarrier" stroke-width="0"/>
<g id="SVGRepo_tracerCarrier" stroke-linecap="round" stroke-linejoin="round"/>
<g id="SVGRepo_iconCarrier"> <path style="fill:#18216D;" d="M500.49,117.185v68.486c0,11.625-9.427,21.052-21.041,21.052h-66.898l55.997,117.589l-40.182,16.609 l-73.919-42.047l-14.399-30.237l-29.478-61.914h-40.861v-72.595h74.241l22.445-37.984h113.054 C491.063,96.144,500.49,105.56,500.49,117.185z"/> <g> <polygon style="fill:#fe7624;" points="468.549,324.312 483.938,356.633 400.776,396.171 354.447,298.875 428.366,340.922 "/> <path style="fill:#fe7624;" d="M366.395,96.144l-22.445,37.984h-74.241v72.595h-10.877c-17.507,0-31.688-14.192-31.688-31.699 v-47.192c0-17.507,14.181-31.688,31.688-31.688C258.832,96.144,366.395,96.144,366.395,96.144z"/> </g> <path style="fill:#fe7624;" d="M310.57,206.723l29.478,61.914h-30.755c-13.11,0-21.731-13.674-16.091-25.507L310.57,206.723z"/> <g> <polygon style="fill:#fe7624;" points="227.144,175.024 227.144,189.147 180.895,189.147 180.895,113.72 227.144,113.72 227.144,127.832 "/> <rect x="134.647" y="113.721" style="fill:#fe7624;" width="46.248" height="75.427"/> </g> <path style="fill:#9DA6BA;" d="M134.647,113.72v75.427h-20.281c-18.393,0-33.299-14.917-33.299-33.299v-4.42v-4.408 c0-18.393,14.906-33.299,33.299-33.299L134.647,113.72L134.647,113.72z"/> <path d="M444.573,144.487h16.206c6.356,0,11.51-5.153,11.51-11.51c0-6.357-5.154-11.51-11.51-11.51h-16.206 c-6.356,0-11.51,5.153-11.51,11.51C433.063,139.334,438.217,144.487,444.573,144.487z"/> <path d="M444.573,179.018h16.206c6.356,0,11.51-5.153,11.51-11.51c0-6.357-5.154-11.51-11.51-11.51h-16.206 c-6.356,0-11.51,5.153-11.51,11.51C433.063,173.865,438.217,179.018,444.573,179.018z"/> <path d="M512,185.671v-68.486c0-17.949-14.603-32.551-32.551-32.551H258.832c-14.234,0-26.878,6.923-34.753,17.576h-43.183h-46.248 h-20.281c-22.292,0-40.827,16.363-44.241,37.708H11.51c-6.357,0-11.51,5.153-11.51,11.51s5.153,11.51,11.51,11.51h58.613 c3.409,21.35,21.948,37.719,44.243,37.719h20.281h46.248h43.187c7.875,10.653,20.517,17.576,34.75,17.576h33.495l-9.516,19.944 c-4.359,9.146-3.734,19.723,1.674,28.291c5.405,8.565,14.68,13.679,24.808,13.679h23.49l11.343,23.822 c0.005,0.009,0.009,0.02,0.014,0.03l41.293,86.721l-31.001,14.738c-5.741,2.729-8.183,9.596-5.454,15.337 c1.971,4.146,6.099,6.571,10.403,6.571c1.655,0,3.338-0.359,4.933-1.118l41.391-19.678c0.006-0.003,0.013-0.005,0.018-0.008 c0.007-0.003,0.013-0.007,0.02-0.01l83.136-39.524c2.758-1.311,4.882-3.665,5.904-6.542c1.023-2.878,0.859-6.043-0.455-8.801 l-29.804-62.589c-2.734-5.74-9.604-8.177-15.341-5.443c-5.739,2.734-8.177,9.602-5.443,15.341l9.198,19.315l-23.773,9.826 l-65.883-37.476l-42.32-88.883c-0.021-0.043-0.048-0.079-0.069-0.121c-0.192-0.394-0.411-0.773-0.648-1.143 c-0.063-0.099-0.125-0.197-0.192-0.292c-0.544-0.795-1.191-1.525-1.935-2.171c-0.085-0.075-0.173-0.146-0.26-0.218 c-0.314-0.258-0.643-0.5-0.99-0.725c-0.071-0.047-0.139-0.099-0.212-0.144c-0.363-0.226-0.737-0.436-1.131-0.624 c-0.043-0.021-0.087-0.035-0.13-0.054c-0.106-0.048-0.215-0.089-0.322-0.134c-0.356-0.152-0.714-0.284-1.076-0.398 c-0.119-0.037-0.236-0.075-0.357-0.108c-0.971-0.27-1.954-0.406-2.933-0.418c-0.047,0-0.092-0.01-0.139-0.01h-29.351v-49.575h62.731 c4.07,0,7.84-2.15,9.909-5.655l19.104-32.329h106.485c5.254,0,9.53,4.275,9.53,9.531v68.486c0,5.261-4.276,9.542-9.53,9.542h-66.898 c-3.95,0-7.624,2.026-9.733,5.365c-2.109,3.34-2.357,7.529-0.658,11.095l12.749,26.769c2.734,5.74,9.604,8.176,15.341,5.443 c5.739-2.734,8.177-9.602,5.443-15.341l-4.91-10.311h48.667C497.398,218.234,512,203.626,512,185.671z M92.577,155.848v-8.828 c0-12.014,9.775-21.789,21.789-21.789h8.771v52.406h-8.771C102.352,177.637,92.577,167.862,92.577,155.848z M146.157,125.231h23.228 v52.406h-23.228V125.231z M215.633,177.637h-23.228v-52.406h23.228v2.601v47.192V177.637z M309.293,257.127 c-3.142,0-4.781-2.059-5.341-2.944c-0.559-0.887-1.715-3.257-0.361-6.096l6.971-14.61l11.262,23.65H309.293z M422.676,350.926 c1.756,0.999,3.72,1.506,5.691,1.506c1.491,0,2.985-0.289,4.397-0.872l30.088-12.437l5.744,12.062l-62.372,29.653l-25.643-53.854 L422.676,350.926z M337.382,122.618h-67.673c-6.356,0-11.51,5.153-11.51,11.51v61.053c-10.831-0.338-19.544-9.238-19.544-20.157 v-47.192c0-11.126,9.052-20.178,20.177-20.178h87.393L337.382,122.618z"/> <path d="M434.469,252.745c-5.739,2.733-8.177,9.601-5.444,15.341l1.271,2.67c1.973,4.143,6.099,6.565,10.401,6.565 c1.658,0,3.343-0.36,4.94-1.121c5.739-2.733,8.177-9.601,5.444-15.341l-1.271-2.67C447.077,252.45,440.212,250.012,434.469,252.745z "/> </g>
</svg>