<?xml version="1.0" encoding="UTF-8"?>
<!DOCTYPE svg PUBLIC "-//W3C//DTD SVG 1.1//EN" "http://www.w3.org/Graphics/SVG/1.1/DTD/svg11.dtd">
<svg xmlns="http://www.w3.org/2000/svg" version="1.1" width="500px" height="499px" style="shape-rendering:geometricPrecision; text-rendering:geometricPrecision; image-rendering:optimizeQuality; fill-rule:evenodd; clip-rule:evenodd" xmlns:xlink="http://www.w3.org/1999/xlink">
<g><path style="opacity:1" fill="#fefdfc" d="M 290.5,25.5 C 296.661,26.2075 302.661,27.5408 308.5,29.5C 308.414,30.4959 308.748,31.3292 309.5,32C 311.618,32.2602 313.284,33.2602 314.5,35C 316.713,35.6256 318.88,35.4589 321,34.5C 328.579,38.1855 336.412,41.1855 344.5,43.5C 363,51.34 379.667,62.0066 394.5,75.5C 394.343,76.8734 394.51,78.2068 395,79.5C 402.114,82.9469 407.614,88.1135 411.5,95C 413.443,97.1102 415.776,98.6102 418.5,99.5C 444.147,128.128 460.814,161.461 468.5,199.5C 468.825,208.455 470.159,217.122 472.5,225.5C 472.362,247.209 471.362,268.876 469.5,290.5C 468.925,296.46 467.592,302.126 465.5,307.5C 463.95,310.242 462.117,312.909 460,315.5C 459.424,317.377 459.591,319.211 460.5,321C 459.54,323.556 458.04,325.723 456,327.5C 455.667,330.167 455.333,332.833 455,335.5C 453.459,339.054 451.625,342.387 449.5,345.5C 448.534,347.396 448.201,349.396 448.5,351.5C 433.663,380.01 413.663,404.344 388.5,424.5C 386.833,424.5 385.167,424.5 383.5,424.5C 383.5,425.5 383.5,426.5 383.5,427.5C 382.448,427.351 381.448,427.517 380.5,428C 378.658,431.017 375.991,432.517 372.5,432.5C 372.567,433.959 372.234,435.292 371.5,436.5C 364.996,441.255 357.996,445.255 350.5,448.5C 347.017,448.89 343.684,449.89 340.5,451.5C 338.174,452.145 336.507,453.478 335.5,455.5C 333.801,455.34 332.134,455.506 330.5,456C 327.219,457.604 323.886,459.104 320.5,460.5C 319.232,459.572 317.899,459.405 316.5,460C 311.942,461.722 307.609,463.889 303.5,466.5C 303.167,466.5 302.833,466.5 302.5,466.5C 284.015,470.082 265.348,472.082 246.5,472.5C 237.475,472.437 228.475,471.937 219.5,471C 208.267,468.311 196.934,466.145 185.5,464.5C 172.498,461.391 160.165,456.725 148.5,450.5C 148.586,449.504 148.252,448.671 147.5,448C 144.833,447 142.167,446 139.5,445C 138.167,444.333 138.167,443.667 139.5,443C 137.134,442.56 134.801,442.06 132.5,441.5C 93.4648,418.799 64.1315,387.132 44.5,346.5C 44.7989,344.396 44.4656,342.396 43.5,340.5C 41.1417,333.913 38.3083,327.58 35,321.5C 34,317.167 33,312.833 32,308.5C 30.8111,306.767 29.6444,305.1 28.5,303.5C 28.5,303.167 28.5,302.833 28.5,302.5C 27.6049,292.125 26.1049,281.792 24,271.5C 22,255.5 22,239.5 24,223.5C 25.7349,210.654 27.9016,197.987 30.5,185.5C 51.771,115.393 96.1043,65.8932 163.5,37C 169.445,34.8506 175.445,33.0173 181.5,31.5C 188.484,31.1497 195.15,29.6497 201.5,27C 205.755,26.2039 209.921,26.3705 214,27.5C 215.188,26.4366 215.688,25.1033 215.5,23.5C 216.5,23.5 217.5,23.5 218.5,23.5C 242.568,21.8258 266.568,22.4924 290.5,25.5 Z M 253.5,192.5 C 259.396,194.144 265.396,195.81 271.5,197.5C 275.863,199.506 280.196,201.506 284.5,203.5C 287.825,205.831 291.158,208.164 294.5,210.5C 301.966,217.293 308.299,224.959 313.5,233.5C 319.091,243.28 323.091,253.614 325.5,264.5C 325.5,264.833 325.5,265.167 325.5,265.5C 326.78,274.547 326.447,283.547 324.5,292.5C 322.264,297.285 319.264,301.618 315.5,305.5C 313.482,306.623 311.482,306.623 309.5,305.5C 296.926,310.959 284.593,316.625 272.5,322.5C 272.167,322.5 271.833,322.5 271.5,322.5C 266.105,323.738 261.105,325.738 256.5,328.5C 253.984,328.755 251.65,329.589 249.5,331C 245.686,333.98 242.019,337.146 238.5,340.5C 235.962,339.049 233.629,337.382 231.5,335.5C 230.421,333.457 228.754,332.124 226.5,331.5C 226.167,331.5 225.833,331.5 225.5,331.5C 223.572,329.526 221.239,328.026 218.5,327C 209.374,324.125 200.374,320.958 191.5,317.5C 187.096,314.441 182.429,311.775 177.5,309.5C 176.713,307.896 175.38,307.229 173.5,307.5C 169.688,306.676 165.688,306.176 161.5,306C 160.956,305.283 160.289,304.783 159.5,304.5C 159.5,303.833 159.167,303.5 158.5,303.5C 149.347,286.883 148.013,269.55 154.5,251.5C 155.957,247.822 157.623,244.155 159.5,240.5C 160.492,238.544 161.492,236.544 162.5,234.5C 168.716,224.28 176.716,215.613 186.5,208.5C 188.389,207.396 190.055,206.063 191.5,204.5C 196.872,201.814 202.205,199.147 207.5,196.5C 222.563,192.034 237.896,190.7 253.5,192.5 Z"/></g>
<g><path style="opacity:1" fill="#fffad9" d="M 290.5,25.5 C 266.568,22.4924 242.568,21.8258 218.5,23.5C 220.969,22.6829 223.635,22.1829 226.5,22C 240.5,21.3333 254.5,21.3333 268.5,22C 276.038,22.7651 283.372,23.9318 290.5,25.5 Z"/></g>
<g><path style="opacity:1" fill="#fffce2" d="M 215.5,23.5 C 215.688,25.1033 215.188,26.4366 214,27.5C 209.921,26.3705 205.755,26.2039 201.5,27C 195.15,29.6497 188.484,31.1497 181.5,31.5C 192.39,27.4513 203.724,24.7847 215.5,23.5 Z"/></g>
<g><path style="opacity:1" fill="#fffadf" d="M 308.5,29.5 C 321.149,32.8213 333.149,37.488 344.5,43.5C 336.412,41.1855 328.579,38.1855 321,34.5C 318.88,35.4589 316.713,35.6256 314.5,35C 313.284,33.2602 311.618,32.2602 309.5,32C 308.748,31.3292 308.414,30.4959 308.5,29.5 Z"/></g>
<g><path style="opacity:1" fill="#eea770" d="M 222.5,63.5 C 221.282,64.1614 219.949,64.8281 218.5,65.5C 220.184,66.1497 221.517,67.1497 222.5,68.5C 220.833,68.5 219.167,68.5 217.5,68.5C 217.5,66.8333 217.5,65.1667 217.5,63.5C 219.167,63.5 220.833,63.5 222.5,63.5 Z"/></g>
<g><path style="opacity:1" fill="#f18326" d="M 222.5,63.5 C 225.5,63.5 228.5,63.5 231.5,63.5C 231.5,64.5 231.5,65.5 231.5,66.5C 230.167,66.5 228.833,66.5 227.5,66.5C 227.511,78.0243 228.178,89.3576 229.5,100.5C 230.091,101.151 230.757,101.818 231.5,102.5C 230.051,103.172 228.718,103.839 227.5,104.5C 225.5,104.5 223.5,104.5 221.5,104.5C 221.5,103.5 221.5,102.5 221.5,101.5C 222.833,101.5 224.167,101.5 225.5,101.5C 225.111,91.498 224.611,81.498 224,71.5C 223.768,70.2625 223.268,69.2625 222.5,68.5C 221.517,67.1497 220.184,66.1497 218.5,65.5C 219.949,64.8281 221.282,64.1614 222.5,63.5 Z"/></g>
<g><path style="opacity:1" fill="#e09057" d="M 276.5,67.5 C 277.649,67.7911 278.316,68.6244 278.5,70C 278.333,70.8333 278.167,71.6667 278,72.5C 274.861,70.8502 271.694,69.5169 268.5,68.5C 270.734,68.3801 272.901,68.7135 275,69.5C 276.03,69.1639 276.53,68.4972 276.5,67.5 Z"/></g>
<g><path style="opacity:1" fill="#fef3e0" d="M 205.5,101.5 C 200.87,98.0424 196.537,94.3758 192.5,90.5C 194.587,89.4154 195.92,87.7488 196.5,85.5C 198.806,73.641 193.806,68.8077 181.5,71C 177.177,72.2755 172.844,73.4422 168.5,74.5C 170.009,81.7618 172.009,88.7618 174.5,95.5C 175.434,96.5676 175.768,97.901 175.5,99.5C 176.578,102.402 177.244,105.402 177.5,108.5C 172.859,97.2386 169.192,85.5719 166.5,73.5C 171.903,71.9709 177.07,69.9709 182,67.5C 193.461,67.4627 199.628,73.1293 200.5,84.5C 199.18,86.8171 197.514,88.8171 195.5,90.5C 197.206,90.8987 198.706,90.8987 200,90.5C 200.353,91.6716 200.187,92.8382 199.5,94C 202.093,96.0858 204.093,98.5858 205.5,101.5 Z"/></g>
<g><path style="opacity:1" fill="#f18429" d="M 196.5,85.5 C 195.92,87.7488 194.587,89.4154 192.5,90.5C 191.566,91.5676 191.232,92.901 191.5,94.5C 190.167,94.5 188.833,94.5 187.5,94.5C 187.351,93.448 187.517,92.448 188,91.5C 189.72,90.6159 190.886,89.2825 191.5,87.5C 192.707,84.1475 192.707,80.8142 191.5,77.5C 191.423,76.2502 190.756,75.4169 189.5,75C 186.167,74.6667 182.833,74.3333 179.5,74C 191.291,68.9701 196.958,72.8035 196.5,85.5 Z"/></g>
<g><path style="opacity:1" fill="#fdfbf3" d="M 191.5,77.5 C 192.707,80.8142 192.707,84.1475 191.5,87.5C 188.174,89.5881 184.507,90.9214 180.5,91.5C 179.261,91.0576 178.261,90.3909 177.5,89.5C 177.15,86.2785 176.483,83.1118 175.5,80C 175.585,78.8926 175.919,77.8926 176.5,77C 181.634,74.9115 186.634,75.0781 191.5,77.5 Z"/></g>
<g><path style="opacity:1" fill="#e98e48" d="M 310.5,76.5 C 316.036,78.473 321.703,80.3063 327.5,82C 329.063,84.4763 328.396,85.9763 325.5,86.5C 320.328,84.2435 314.995,82.5768 309.5,81.5C 309.737,82.791 309.404,83.791 308.5,84.5C 308.5,83.1667 308.5,81.8333 308.5,80.5C 310.924,80.8076 313.257,80.4742 315.5,79.5C 313.345,78.9986 311.678,77.9986 310.5,76.5 Z"/></g>
<g><path style="opacity:1" fill="#f38220" d="M 310.5,76.5 C 311.678,77.9986 313.345,78.9986 315.5,79.5C 313.257,80.4742 310.924,80.8076 308.5,80.5C 308.5,81.8333 308.5,83.1667 308.5,84.5C 308.5,84.8333 308.5,85.1667 308.5,85.5C 307.518,86.1408 306.518,86.8075 305.5,87.5C 305.167,86.8333 304.833,86.1667 304.5,85.5C 305.323,82.3636 306.323,79.3636 307.5,76.5C 308.5,76.5 309.5,76.5 310.5,76.5 Z"/></g>
<g><path style="opacity:1" fill="#e88b42" d="M 196.5,85.5 C 196.958,72.8035 191.291,68.9701 179.5,74C 182.833,74.3333 186.167,74.6667 189.5,75C 190.756,75.4169 191.423,76.2502 191.5,77.5C 186.634,75.0781 181.634,74.9115 176.5,77C 175.919,77.8926 175.585,78.8926 175.5,80C 176.483,83.1118 177.15,86.2785 177.5,89.5C 175.287,87.042 174.121,84.042 174,80.5C 173.667,80.8333 173.333,81.1667 173,81.5C 173.163,86.1731 173.663,90.8398 174.5,95.5C 172.009,88.7618 170.009,81.7618 168.5,74.5C 172.844,73.4422 177.177,72.2755 181.5,71C 193.806,68.8077 198.806,73.641 196.5,85.5 Z"/></g>
<g><path style="opacity:0.984" fill="#fff9d9" d="M 394.5,75.5 C 403.5,82.5 411.5,90.5 418.5,99.5C 415.776,98.6102 413.443,97.1102 411.5,95C 407.614,88.1135 402.114,82.9469 395,79.5C 394.51,78.2068 394.343,76.8734 394.5,75.5 Z"/></g>
<g><path style="opacity:1" fill="#e69659" d="M 231.5,63.5 C 232.833,64.8333 232.833,66.1667 231.5,67.5C 230.5,67.5 229.5,67.5 228.5,67.5C 229.008,78.4935 229.342,89.4935 229.5,100.5C 228.178,89.3576 227.511,78.0243 227.5,66.5C 228.833,66.5 230.167,66.5 231.5,66.5C 231.5,65.5 231.5,64.5 231.5,63.5 Z"/></g>
<g><path style="opacity:1" fill="#fff1d8" d="M 264.5,81.5 C 270.341,83.5067 274.841,87.1734 278,92.5C 278.789,94.7116 278.622,96.7116 277.5,98.5C 277.702,96.0108 277.202,93.6775 276,91.5C 272.562,87.5587 268.729,84.2254 264.5,81.5 Z"/></g>
<g><path style="opacity:1" fill="#ea8a3f" d="M 276.5,67.5 C 276.53,68.4972 276.03,69.1639 275,69.5C 272.901,68.7135 270.734,68.3801 268.5,68.5C 260.394,67.4142 257.394,70.7475 259.5,78.5C 260.94,79.9524 262.606,80.9524 264.5,81.5C 268.729,84.2254 272.562,87.5587 276,91.5C 277.202,93.6775 277.702,96.0108 277.5,98.5C 275.906,102.587 272.906,105.087 268.5,106C 264.167,106.667 259.833,106.667 255.5,106C 253.509,105.626 251.842,104.793 250.5,103.5C 249.28,101.716 249.28,100.05 250.5,98.5C 255.631,101.76 261.298,102.927 267.5,102C 272.469,98.6106 272.802,94.7772 268.5,90.5C 261.955,87.7868 256.789,83.4534 253,77.5C 251.346,71.3068 253.513,67.1401 259.5,65C 263.833,64.3333 268.167,64.3333 272.5,65C 274.32,65.2004 275.653,66.0337 276.5,67.5 Z"/></g>
<g><path style="opacity:1" fill="#e88f4c" d="M 310.5,76.5 C 309.5,76.5 308.5,76.5 307.5,76.5C 306.323,79.3636 305.323,82.3636 304.5,85.5C 304.833,86.1667 305.167,86.8333 305.5,87.5C 306.518,86.8075 307.518,86.1408 308.5,85.5C 307.117,87.9779 306.117,90.6446 305.5,93.5C 304.837,91.9581 304.17,90.2914 303.5,88.5C 302.193,91.4686 300.527,94.1352 298.5,96.5C 300.879,88.7511 304.045,81.4178 308,74.5C 309.301,74.6387 310.134,75.3054 310.5,76.5 Z"/></g>
<g><path style="opacity:1" fill="#f4831e" d="M 268.5,90.5 C 268.047,89.5416 267.381,88.7083 266.5,88C 272.021,88.1862 275.021,91.1862 275.5,97C 275.507,98.8122 274.84,100.312 273.5,101.5C 272.682,98.8929 272.182,96.2263 272,93.5C 271.578,91.5743 270.411,90.5743 268.5,90.5 Z"/></g>
<g><path style="opacity:1" fill="#f18224" d="M 177.5,89.5 C 177.238,90.9778 177.571,92.3112 178.5,93.5C 181.8,91.7972 183.133,92.4639 182.5,95.5C 182.167,95.5 181.833,95.5 181.5,95.5C 180.275,96.1522 179.608,97.3189 179.5,99C 180.719,101.842 180.553,104.675 179,107.5C 178.5,105.5 178,103.5 177.5,101.5C 177.253,100.287 176.586,99.62 175.5,99.5C 175.768,97.901 175.434,96.5676 174.5,95.5C 173.663,90.8398 173.163,86.1731 173,81.5C 173.333,81.1667 173.667,80.8333 174,80.5C 174.121,84.042 175.287,87.042 177.5,89.5 Z"/></g>
<g><path style="opacity:1" fill="#f18328" d="M 305.5,93.5 C 305.833,93.5 306.167,93.5 306.5,93.5C 306.414,94.4959 306.748,95.3292 307.5,96C 305.942,96.21 304.609,96.71 303.5,97.5C 302.488,100.257 301.488,102.924 300.5,105.5C 299.883,105.611 299.383,105.944 299,106.5C 298.503,108.81 298.337,111.143 298.5,113.5C 297.167,113.5 295.833,113.5 294.5,113.5C 295.856,107.781 297.19,102.114 298.5,96.5C 300.527,94.1352 302.193,91.4686 303.5,88.5C 304.17,90.2914 304.837,91.9581 305.5,93.5 Z"/></g>
<g><path style="opacity:1" fill="#e98c44" d="M 306.5,93.5 C 310.211,95.6826 314.211,97.1826 318.5,98C 319.76,99.8138 319.76,101.647 318.5,103.5C 313.376,101.77 308.376,99.77 303.5,97.5C 304.609,96.71 305.942,96.21 307.5,96C 306.748,95.3292 306.414,94.4959 306.5,93.5 Z"/></g>
<g><path style="opacity:1" fill="#e59b61" d="M 222.5,68.5 C 223.268,69.2625 223.768,70.2625 224,71.5C 224.611,81.498 225.111,91.498 225.5,101.5C 224.167,101.5 222.833,101.5 221.5,101.5C 221.5,102.5 221.5,103.5 221.5,104.5C 223.5,104.5 225.5,104.5 227.5,104.5C 225.393,105.468 223.059,105.802 220.5,105.5C 220.5,103.833 220.5,102.167 220.5,100.5C 221.833,100.5 223.167,100.5 224.5,100.5C 223.9,89.8258 223.233,79.1591 222.5,68.5 Z"/></g>
<g><path style="opacity:1" fill="#feebcd" d="M 231.5,67.5 C 230.325,69.3838 229.658,71.5505 229.5,74C 230.117,81.4917 230.617,88.9917 231,96.5C 231.69,98.3502 232.856,99.6836 234.5,100.5C 232.833,100.5 231.167,100.5 229.5,100.5C 229.342,89.4935 229.008,78.4935 228.5,67.5C 229.5,67.5 230.5,67.5 231.5,67.5 Z"/></g>
<g><path style="opacity:1" fill="#e6ae85" d="M 250.5,98.5 C 249.28,100.05 249.28,101.716 250.5,103.5C 249.307,103.03 248.64,102.03 248.5,100.5C 248.833,99.5 249.167,98.5 249.5,97.5C 250.107,97.6236 250.44,97.9569 250.5,98.5 Z"/></g>
<g><path style="opacity:1" fill="#d88b50" d="M 229.5,100.5 C 231.167,100.5 232.833,100.5 234.5,100.5C 234.5,101.833 234.5,103.167 234.5,104.5C 232.167,104.5 229.833,104.5 227.5,104.5C 228.718,103.839 230.051,103.172 231.5,102.5C 230.757,101.818 230.091,101.151 229.5,100.5 Z"/></g>
<g><path style="opacity:1" fill="#ea893c" d="M 191.5,87.5 C 190.886,89.2825 189.72,90.6159 188,91.5C 187.517,92.448 187.351,93.448 187.5,94.5C 188.833,94.5 190.167,94.5 191.5,94.5C 191.232,92.901 191.566,91.5676 192.5,90.5C 196.537,94.3758 200.87,98.0424 205.5,101.5C 207.094,102.983 208.76,104.483 210.5,106C 208.305,107.373 205.971,107.706 203.5,107C 199.352,103.686 195.352,100.186 191.5,96.5C 188.572,95.5159 185.572,95.1826 182.5,95.5C 183.133,92.4639 181.8,91.7972 178.5,93.5C 177.571,92.3112 177.238,90.9778 177.5,89.5C 178.261,90.3909 179.261,91.0576 180.5,91.5C 184.507,90.9214 188.174,89.5881 191.5,87.5 Z"/></g>
<g><path style="opacity:1" fill="#eb883a" d="M 181.5,95.5 C 181.077,96.2646 180.743,97.0979 180.5,98C 182.388,103.038 183.221,108.205 183,113.5C 181.951,114.517 180.784,114.684 179.5,114C 178.756,112.185 178.089,110.352 177.5,108.5C 177.244,105.402 176.578,102.402 175.5,99.5C 176.586,99.62 177.253,100.287 177.5,101.5C 178,103.5 178.5,105.5 179,107.5C 180.553,104.675 180.719,101.842 179.5,99C 179.608,97.3189 180.275,96.1522 181.5,95.5 Z"/></g>
<g><path style="opacity:1" fill="#fff2dc" d="M 145.5,111.5 C 147.969,114.144 150.302,116.977 152.5,120C 152.167,120.167 151.833,120.333 151.5,120.5C 138.823,115.663 125.99,111.33 113,107.5C 110.825,107.834 108.992,108.834 107.5,110.5C 108.889,112.868 110.222,115.201 111.5,117.5C 109.248,117.084 107.748,115.751 107,113.5C 106.503,111.19 106.337,108.857 106.5,106.5C 109.841,105.995 113.174,105.828 116.5,106C 125.08,109.787 133.914,112.954 143,115.5C 144.167,115.167 145.333,114.833 146.5,114.5C 145.873,113.583 145.539,112.583 145.5,111.5 Z"/></g>
<g><path style="opacity:1" fill="#e88d48" d="M 298.5,96.5 C 297.19,102.114 295.856,107.781 294.5,113.5C 295.833,113.5 297.167,113.5 298.5,113.5C 298.337,111.143 298.503,108.81 299,106.5C 299.383,105.944 299.883,105.611 300.5,105.5C 299.481,107.54 299.481,109.54 300.5,111.5C 305.859,113.378 310.859,115.878 315.5,119C 315.333,120.5 314.5,121.333 313,121.5C 306.316,118.829 299.65,116.162 293,113.5C 293.733,107.467 295.567,101.801 298.5,96.5 Z"/></g>
<g><path style="opacity:1" fill="#eb8a3d" d="M 146.5,123.5 C 136.765,120.471 127.098,117.137 117.5,113.5C 117.167,113.833 116.833,114.167 116.5,114.5C 122.474,122.974 128.641,131.307 135,139.5C 135.544,141.845 134.544,143.179 132,143.5C 130.739,143.241 129.739,142.574 129,141.5C 123.69,133.038 117.857,125.038 111.5,117.5C 110.222,115.201 108.889,112.868 107.5,110.5C 108.992,108.834 110.825,107.834 113,107.5C 125.99,111.33 138.823,115.663 151.5,120.5C 151.833,120.333 152.167,120.167 152.5,120C 150.302,116.977 147.969,114.144 145.5,111.5C 142.305,105.459 138.472,99.7924 134,94.5C 133.364,91.4783 134.53,89.9783 137.5,90C 145.665,100.668 153.332,111.668 160.5,123C 159.312,124.944 157.646,126.444 155.5,127.5C 152.292,126.391 149.292,125.058 146.5,123.5 Z"/></g>
<g><path style="opacity:1" fill="#f18325" d="M 146.5,123.5 C 144.426,121.873 142.093,120.373 139.5,119C 144.042,119.793 148.709,120.626 153.5,121.5C 153.5,120.5 153.5,119.5 153.5,118.5C 157.314,118.651 158.981,120.651 158.5,124.5C 154.481,124.354 150.481,124.021 146.5,123.5 Z"/></g>
<g><path style="opacity:1" fill="#ec893b" d="M 362.5,150.5 C 359.794,150.575 357.127,150.908 354.5,151.5C 354.5,150.5 354.5,149.5 354.5,148.5C 358.512,138.298 362.012,127.965 365,117.5C 357.09,124.406 349.423,131.739 342,139.5C 340.647,138.315 339.48,136.981 338.5,135.5C 348.146,125.856 358.146,116.522 368.5,107.5C 370.5,108.833 372.167,110.5 373.5,112.5C 369.468,123.572 365.135,134.572 360.5,145.5C 360.833,145.833 361.167,146.167 361.5,146.5C 372.38,142.762 383.38,139.429 394.5,136.5C 397.362,136.364 399.029,137.698 399.5,140.5C 390.494,150.506 380.827,159.839 370.5,168.5C 368.054,167.573 367.221,165.906 368,163.5C 375.136,157.365 381.969,150.865 388.5,144C 387.333,143.833 386.167,143.667 385,143.5C 377.607,146.286 370.107,148.619 362.5,150.5 Z"/></g>
<g><path style="opacity:1" fill="#e69c65" d="M 354.5,148.5 C 354.5,149.5 354.5,150.5 354.5,151.5C 357.127,150.908 359.794,150.575 362.5,150.5C 359.93,152.549 357.096,153.216 354,152.5C 353.235,150.934 353.402,149.601 354.5,148.5 Z"/></g>
<g><path style="opacity:1" fill="#843154" d="M 276.5,137.5 C 277.583,137.539 278.583,137.873 279.5,138.5C 279.833,140.333 280.167,142.167 280.5,144C 278.554,158.078 274.721,171.578 269,184.5C 267.148,188.077 264.482,189.077 261,187.5C 260.333,184.5 260.333,181.5 261,178.5C 264.505,165.146 268.005,151.813 271.5,138.5C 273.415,138.784 275.081,138.451 276.5,137.5 Z"/></g>
<g><path style="opacity:1" fill="#b28095" d="M 307.5,160.5 C 309.607,159.532 311.941,159.198 314.5,159.5C 314.737,160.791 314.404,161.791 313.5,162.5C 312.082,160.692 310.082,160.025 307.5,160.5 Z"/></g>
<g><path style="opacity:1" fill="#862a52" d="M 206.5,138.5 C 207.537,139.93 208.204,141.597 208.5,143.5C 209.968,151.422 211.135,159.422 212,167.5C 212.667,168.833 213.333,168.833 214,167.5C 214.261,170.663 215.094,173.663 216.5,176.5C 216.547,178 215.881,179 214.5,179.5C 213.5,177.833 212.167,176.5 210.5,175.5C 209.702,173.922 209.202,172.256 209,170.5C 208.667,170.833 208.333,171.167 208,171.5C 207.783,168.512 206.783,165.845 205,163.5C 204.424,161.623 204.591,159.789 205.5,158C 205.333,157.5 205.167,157 205,156.5C 204.692,157.308 204.192,157.975 203.5,158.5C 200.951,152.071 199.617,145.404 199.5,138.5C 201.833,138.5 204.167,138.5 206.5,138.5 Z"/></g>
<g><path style="opacity:1" fill="#7b3b55" d="M 242.5,172.5 C 242.838,160.457 242.338,148.457 241,136.5C 239.556,134.845 237.722,134.178 235.5,134.5C 233.646,149.112 233.146,163.778 234,178.5C 235.672,182.784 238.172,183.451 241.5,180.5C 241.22,184.225 239.22,185.392 235.5,184C 234.54,182.581 233.707,181.081 233,179.5C 232.333,164.5 232.333,149.5 233,134.5C 234.666,131.621 237.166,130.788 240.5,132C 241.46,133.419 242.293,134.919 243,136.5C 243.826,148.674 243.66,160.674 242.5,172.5 Z"/></g>
<g><path style="opacity:1" fill="#862a52" d="M 242.5,172.5 C 242.599,175.237 242.265,177.904 241.5,180.5C 238.172,183.451 235.672,182.784 234,178.5C 233.146,163.778 233.646,149.112 235.5,134.5C 237.722,134.178 239.556,134.845 241,136.5C 242.338,148.457 242.838,160.457 242.5,172.5 Z"/></g>
<g><path style="opacity:1" fill="#ed8734" d="M 101.5,178.5 C 95.9431,178.847 90.6098,178.18 85.5,176.5C 84.3744,175.142 84.3744,173.808 85.5,172.5C 88.5659,174.413 91.8992,175.746 95.5,176.5C 97.1705,176.332 98.5039,175.665 99.5,174.5C 108.315,168.619 109.315,161.786 102.5,154C 94.8658,149.366 87.8658,144.033 81.5,138C 81.8214,135.456 83.1547,134.456 85.5,135C 91.2206,139.721 97.2206,144.054 103.5,148C 105.667,150.167 107.833,152.333 110,154.5C 111.545,159.047 111.879,163.713 111,168.5C 108.254,172.408 105.088,175.741 101.5,178.5 Z"/></g>
<g><path style="opacity:1" fill="#e98c45" d="M 99.5,174.5 C 98.5039,175.665 97.1705,176.332 95.5,176.5C 91.8992,175.746 88.5659,174.413 85.5,172.5C 84.3744,173.808 84.3744,175.142 85.5,176.5C 78.5653,172.08 71.732,167.413 65,162.5C 64.2211,160.094 65.0544,158.427 67.5,157.5C 74.5,162.667 81.5,167.833 88.5,173C 92.0601,174.237 95.7267,174.737 99.5,174.5 Z"/></g>
<g><path style="opacity:1" fill="#852f54" d="M 164.5,159.5 C 169.102,159.384 172.935,161.051 176,164.5C 179.935,172.094 184.268,179.427 189,186.5C 190.569,190.703 191.402,195.036 191.5,199.5C 185.875,198.407 181.375,195.407 178,190.5C 171.302,181.105 166.802,170.772 164.5,159.5 Z"/></g>
<g><path style="opacity:1" fill="#852e53" d="M 307.5,160.5 C 310.082,160.025 312.082,160.692 313.5,162.5C 310.7,174.599 305.367,185.432 297.5,195C 295.423,196.705 293.09,197.872 290.5,198.5C 289.5,198.5 288.5,198.5 287.5,198.5C 287.5,196.833 287.5,195.167 287.5,193.5C 292.881,183.742 298.048,173.742 303,163.5C 304.271,162.117 305.771,161.117 307.5,160.5 Z"/></g>
<g><path style="opacity:1" fill="#823455" d="M 206.5,138.5 C 204.167,138.5 201.833,138.5 199.5,138.5C 199.617,145.404 200.951,152.071 203.5,158.5C 204.192,157.975 204.692,157.308 205,156.5C 205.167,157 205.333,157.5 205.5,158C 204.591,159.789 204.424,161.623 205,163.5C 206.783,165.845 207.783,168.512 208,171.5C 208.333,171.167 208.667,170.833 209,170.5C 209.202,172.256 209.702,173.922 210.5,175.5C 212.167,176.5 213.5,177.833 214.5,179.5C 215.881,179 216.547,178 216.5,176.5C 215.094,173.663 214.261,170.663 214,167.5C 213.333,168.833 212.667,168.833 212,167.5C 211.135,159.422 209.968,151.422 208.5,143.5C 210.878,153.509 213.711,163.509 217,173.5C 217.663,178.537 217.496,183.537 216.5,188.5C 212.507,188.755 209.674,187.089 208,183.5C 205,171.5 202,159.5 199,147.5C 198.502,144.183 198.335,140.85 198.5,137.5C 201.385,137.194 204.052,137.527 206.5,138.5 Z"/></g>
<g><path style="opacity:1" fill="#e48f4c" d="M 85.5,176.5 C 90.6098,178.18 95.9431,178.847 101.5,178.5C 101.082,179.222 100.416,179.722 99.5,180C 94.0511,181.393 89.3845,180.226 85.5,176.5 Z"/></g>
<g><path style="opacity:1" fill="#f0842b" d="M 409.5,177.5 C 408.391,177.557 407.391,177.89 406.5,178.5C 405.5,178.5 404.5,178.5 403.5,178.5C 403.318,180.591 403.652,182.591 404.5,184.5C 404.167,184.833 403.833,185.167 403.5,185.5C 402.482,184.807 401.482,184.141 400.5,183.5C 398.708,183.366 397.042,183.699 395.5,184.5C 393.833,184.5 392.167,184.5 390.5,184.5C 390.5,183.5 390.5,182.5 390.5,181.5C 396.151,178.008 402.151,175.008 408.5,172.5C 411.298,171.9 413.965,170.9 416.5,169.5C 417.316,171.287 418.316,172.954 419.5,174.5C 419.167,174.833 418.833,175.167 418.5,175.5C 414.807,172.839 411.807,173.506 409.5,177.5 Z"/></g>
<g><path style="opacity:1" fill="#ea8c43" d="M 409.5,177.5 C 411.807,173.506 414.807,172.839 418.5,175.5C 418.833,175.167 419.167,174.833 419.5,174.5C 418.316,172.954 417.316,171.287 416.5,169.5C 413.965,170.9 411.298,171.9 408.5,172.5C 410.997,169.918 413.997,168.418 417.5,168C 421.253,174.093 424.586,180.427 427.5,187C 426.828,189.39 425.495,189.89 423.5,188.5C 421.353,183.54 418.686,178.873 415.5,174.5C 413.374,175.37 411.374,176.37 409.5,177.5 Z"/></g>
<g><path style="opacity:1" fill="#fefcd4" d="M 253.5,192.5 C 237.896,190.7 222.563,192.034 207.5,196.5C 208.574,195.115 209.907,193.949 211.5,193C 223.435,191.007 235.435,190.341 247.5,191C 249.708,191.191 251.708,191.691 253.5,192.5 Z"/></g>
<g><path style="opacity:1" fill="#e88a40" d="M 406.5,178.5 C 405.722,179.156 405.056,179.989 404.5,181C 406.197,184.894 408.03,188.727 410,192.5C 410.757,195.914 409.59,196.914 406.5,195.5C 404.489,191.478 402.489,187.478 400.5,183.5C 401.482,184.141 402.482,184.807 403.5,185.5C 403.833,185.167 404.167,184.833 404.5,184.5C 403.652,182.591 403.318,180.591 403.5,178.5C 404.5,178.5 405.5,178.5 406.5,178.5 Z"/></g>
<g><path style="opacity:1" fill="#fefcd9" d="M 253.5,192.5 C 259.552,192.731 265.552,193.398 271.5,194.5C 271.5,195.5 271.5,196.5 271.5,197.5C 265.396,195.81 259.396,194.144 253.5,192.5 Z"/></g>
<g><path style="opacity:1" fill="#8a4f67" d="M 333.5,199.5 C 333.967,197.289 334.967,195.289 336.5,193.5C 337.474,191.257 337.808,188.924 337.5,186.5C 335.784,186.629 334.117,186.962 332.5,187.5C 334.32,185.552 336.654,184.552 339.5,184.5C 340.602,190.881 338.602,195.881 333.5,199.5 Z"/></g>
<g><path style="opacity:1" fill="#d3a7b8" d="M 287.5,193.5 C 287.5,195.167 287.5,196.833 287.5,198.5C 288.5,198.5 289.5,198.5 290.5,198.5C 289.432,199.434 288.099,199.768 286.5,199.5C 286.205,197.265 286.539,195.265 287.5,193.5 Z"/></g>
<g><path style="opacity:1" fill="#852e53" d="M 333.5,199.5 C 328.395,204.103 323.395,208.936 318.5,214C 315.274,215.199 311.941,215.699 308.5,215.5C 308.298,213.011 308.798,210.677 310,208.5C 315.126,198.872 322.626,191.872 332.5,187.5C 334.117,186.962 335.784,186.629 337.5,186.5C 337.808,188.924 337.474,191.257 336.5,193.5C 334.967,195.289 333.967,197.289 333.5,199.5 Z"/></g>
<g><path style="opacity:1" fill="#eb8a3d" d="M 390.5,181.5 C 390.5,182.5 390.5,183.5 390.5,184.5C 392.167,184.5 393.833,184.5 395.5,184.5C 393.507,186.163 391.174,187.33 388.5,188C 387.978,188.561 387.645,189.228 387.5,190C 390.123,194.71 392.457,199.543 394.5,204.5C 394.281,206.915 392.948,207.915 390.5,207.5C 387.895,200.697 384.895,194.03 381.5,187.5C 383.945,184.731 386.945,182.731 390.5,181.5 Z"/></g>
<g><path style="opacity:1" fill="#852f54" d="M 152.5,191.5 C 156.408,196.25 160.575,200.917 165,205.5C 165.93,207.936 167.097,210.269 168.5,212.5C 167.667,212.833 166.833,213.167 166,213.5C 163.914,212.582 161.747,211.915 159.5,211.5C 153.149,205.648 146.982,199.648 141,193.5C 140.179,190.446 140.345,187.446 141.5,184.5C 145.74,186.109 149.407,188.442 152.5,191.5 Z"/></g>
<g><path style="opacity:0.863" fill="#fefbb9" d="M 191.5,204.5 C 190.055,206.063 188.389,207.396 186.5,208.5C 186.967,205.703 188.633,204.369 191.5,204.5 Z"/></g>
<g><path style="opacity:1" fill="#fdfacc" d="M 257.5,207.5 C 246.187,206.674 234.854,206.34 223.5,206.5C 234.924,203.623 246.257,203.956 257.5,207.5 Z"/></g>
<g><path style="opacity:1" fill="#fdfdf8" d="M 223.5,206.5 C 234.854,206.34 246.187,206.674 257.5,207.5C 258.167,207.5 258.833,207.5 259.5,207.5C 259.414,208.496 259.748,209.329 260.5,210C 265.222,210.629 269.556,212.129 273.5,214.5C 273.33,215.822 273.663,216.989 274.5,218C 273.922,219.417 272.922,220.25 271.5,220.5C 268.515,219.674 265.849,218.341 263.5,216.5C 261.677,214.974 259.844,213.308 258,211.5C 256.938,212.097 255.772,212.43 254.5,212.5C 242.366,209.666 230.366,209.999 218.5,213.5C 218.137,214.183 217.804,214.85 217.5,215.5C 216.292,216.234 214.959,216.567 213.5,216.5C 210.813,216.336 208.146,216.503 205.5,217C 204.833,218.333 204.167,219.667 203.5,221C 193.308,225.313 191.975,223.48 199.5,215.5C 201.849,213.659 204.515,212.326 207.5,211.5C 213.197,210.28 218.531,208.613 223.5,206.5 Z"/></g>
<g><path style="opacity:1" fill="#fefac7" d="M 284.5,203.5 C 286.262,203.357 287.929,203.691 289.5,204.5C 291.19,206.519 292.856,208.519 294.5,210.5C 291.158,208.164 287.825,205.831 284.5,203.5 Z"/></g>
<g><path style="opacity:1" fill="#84435e" d="M 152.5,191.5 C 159.883,196.384 165.716,202.717 170,210.5C 170.494,212.134 170.66,213.801 170.5,215.5C 165.906,216.343 162.239,215.009 159.5,211.5C 161.747,211.915 163.914,212.582 166,213.5C 166.833,213.167 167.667,212.833 168.5,212.5C 167.097,210.269 165.93,207.936 165,205.5C 160.575,200.917 156.408,196.25 152.5,191.5 Z"/></g>
<g><path style="opacity:1" fill="#fefbcb" d="M 223.5,206.5 C 218.531,208.613 213.197,210.28 207.5,211.5C 212.367,208.657 217.7,206.991 223.5,206.5 Z"/></g>
<g><path style="opacity:1" fill="#fefcd7" d="M 263.5,216.5 C 248.255,211.637 232.922,211.304 217.5,215.5C 217.804,214.85 218.137,214.183 218.5,213.5C 230.366,209.999 242.366,209.666 254.5,212.5C 255.772,212.43 256.938,212.097 258,211.5C 259.844,213.308 261.677,214.974 263.5,216.5 Z"/></g>
<g><path style="opacity:1" fill="#ea8a3e" d="M 83.5,199.5 C 79.9351,198.534 76.4351,198.534 73,199.5C 72.8333,199.833 72.6667,200.167 72.5,200.5C 75.1071,201.318 77.7737,201.818 80.5,202C 81.056,202.383 81.3893,202.883 81.5,203.5C 79.2181,202.61 76.8848,202.444 74.5,203C 69.8663,206.632 65.533,210.632 61.5,215C 54.6841,219.17 49.5175,217.67 46,210.5C 44.4683,202.939 45.9683,196.106 50.5,190C 52.4645,189.376 54.1311,189.876 55.5,191.5C 52.6843,195.464 50.6843,199.798 49.5,204.5C 50.4349,210.8 53.7682,212.633 59.5,210C 63.9094,204.92 68.9094,200.586 74.5,197C 78.0713,196.141 81.0713,196.974 83.5,199.5 Z"/></g>
<g><path style="opacity:1" fill="#f0a875" d="M 82.5,205.5 C 83.6378,208.304 83.8045,211.304 83,214.5C 82.6174,215.056 82.1174,215.389 81.5,215.5C 82.3242,212.236 82.6576,208.902 82.5,205.5 Z"/></g>
<g><path style="opacity:1" fill="#fffcde" d="M 468.5,199.5 C 471.111,207.842 472.444,216.509 472.5,225.5C 470.159,217.122 468.825,208.455 468.5,199.5 Z"/></g>
<g><path style="opacity:1" fill="#f08329" d="M 83.5,199.5 C 85.2624,200.262 86.2624,201.596 86.5,203.5C 86.2701,210.084 84.9368,216.417 82.5,222.5C 82.1667,223.167 81.8333,223.833 81.5,224.5C 80.1266,224.657 78.7932,224.49 77.5,224C 80.3208,221.859 81.6541,219.025 81.5,215.5C 82.1174,215.389 82.6174,215.056 83,214.5C 83.8045,211.304 83.6378,208.304 82.5,205.5C 82.1667,204.833 81.8333,204.167 81.5,203.5C 81.3893,202.883 81.056,202.383 80.5,202C 77.7737,201.818 75.1071,201.318 72.5,200.5C 72.6667,200.167 72.8333,199.833 73,199.5C 76.4351,198.534 79.9351,198.534 83.5,199.5 Z"/></g>
<g><path style="opacity:1" fill="#e29154" d="M 86.5,203.5 C 88.4972,210.451 87.1639,216.785 82.5,222.5C 84.9368,216.417 86.2701,210.084 86.5,203.5 Z"/></g>
<g><path style="opacity:1" fill="#853054" d="M 122.5,217.5 C 126.273,217.263 129.94,217.763 133.5,219C 140.247,222.455 146.747,226.289 153,230.5C 153.822,233.117 154.322,235.784 154.5,238.5C 143.148,237.573 133.314,233.24 125,225.5C 123.293,223.091 122.46,220.425 122.5,217.5 Z"/></g>
<g><path style="opacity:1" fill="#fefbe8" d="M 259.5,207.5 C 274.654,211.492 286.821,219.825 296,232.5C 297.145,235.432 297.978,238.432 298.5,241.5C 296.692,241.509 295.025,241.009 293.5,240C 286.295,233.292 278.962,226.792 271.5,220.5C 272.922,220.25 273.922,219.417 274.5,218C 273.663,216.989 273.33,215.822 273.5,214.5C 269.556,212.129 265.222,210.629 260.5,210C 259.748,209.329 259.414,208.496 259.5,207.5 Z"/></g>
<g><path style="opacity:1" fill="#fdfce8" d="M 199.5,215.5 C 191.975,223.48 193.308,225.313 203.5,221C 204.167,219.667 204.833,218.333 205.5,217C 208.146,216.503 210.813,216.336 213.5,216.5C 208.227,219.142 203.227,222.309 198.5,226C 194.298,230.37 189.964,234.537 185.5,238.5C 184.07,238.421 182.736,238.754 181.5,239.5C 180.943,237.282 180.943,234.949 181.5,232.5C 185.577,224.756 191.577,219.089 199.5,215.5 Z"/></g>
<g><path style="opacity:1" fill="#f0842a" d="M 427.5,218.5 C 430.5,218.5 433.5,218.5 436.5,218.5C 436.5,219.833 436.5,221.167 436.5,222.5C 430.779,222.369 425.112,222.869 419.5,224C 418.944,224.383 418.611,224.883 418.5,225.5C 418.167,225.5 417.833,225.5 417.5,225.5C 414.972,224.834 412.306,224.168 409.5,223.5C 411.745,222.792 413.745,221.792 415.5,220.5C 419.454,219.619 423.454,218.952 427.5,218.5 Z"/></g>
<g><path style="opacity:1" fill="#de9259" d="M 81.5,215.5 C 81.6541,219.025 80.3208,221.859 77.5,224C 78.7932,224.49 80.1266,224.657 81.5,224.5C 79.4833,225.874 77.4833,225.707 75.5,224C 77.7519,221.264 79.7519,218.431 81.5,215.5 Z"/></g>
<g><path style="opacity:1" fill="#e89352" d="M 427.5,218.5 C 430.625,217.521 433.958,217.187 437.5,217.5C 438.972,222.392 439.972,227.392 440.5,232.5C 440.684,235.205 440.017,237.538 438.5,239.5C 438.824,235.445 438.491,231.445 437.5,227.5C 436.679,230.447 436.179,233.447 436,236.5C 435.617,237.056 435.117,237.389 434.5,237.5C 435.557,232.866 435.557,228.2 434.5,223.5C 429.07,223.517 423.737,224.183 418.5,225.5C 418.611,224.883 418.944,224.383 419.5,224C 425.112,222.869 430.779,222.369 436.5,222.5C 436.5,221.167 436.5,219.833 436.5,218.5C 433.5,218.5 430.5,218.5 427.5,218.5 Z"/></g>
<g><path style="opacity:1" fill="#eb8a3e" d="M 415.5,220.5 C 413.745,221.792 411.745,222.792 409.5,223.5C 412.306,224.168 414.972,224.834 417.5,225.5C 416.858,229.475 417.858,232.808 420.5,235.5C 420.859,237.371 421.859,238.871 423.5,240C 426.167,240.667 428.833,240.667 431.5,240C 432.056,239.617 432.389,239.117 432.5,238.5C 433.167,238.167 433.833,237.833 434.5,237.5C 435.117,237.389 435.617,237.056 436,236.5C 436.179,233.447 436.679,230.447 437.5,227.5C 438.491,231.445 438.824,235.445 438.5,239.5C 434.683,246.522 429.016,248.355 421.5,245C 416.029,240.098 413.362,233.932 413.5,226.5C 407.875,227.493 402.208,228.16 396.5,228.5C 396.5,226.833 396.5,225.167 396.5,223.5C 402.814,222.392 409.147,221.392 415.5,220.5 Z"/></g>
<g><path style="opacity:1" fill="#fef1dc" d="M 434.5,237.5 C 433.833,237.833 433.167,238.167 432.5,238.5C 432.715,236.226 433.382,234.059 434.5,232C 433.22,229.64 432.553,227.14 432.5,224.5C 427.934,225.807 423.267,226.474 418.5,226.5C 418.413,229.739 419.08,232.739 420.5,235.5C 417.858,232.808 416.858,229.475 417.5,225.5C 417.833,225.5 418.167,225.5 418.5,225.5C 423.737,224.183 429.07,223.517 434.5,223.5C 435.557,228.2 435.557,232.866 434.5,237.5 Z"/></g>
<g><path style="opacity:1" fill="#fdfdf8" d="M 432.5,238.5 C 432.389,239.117 432.056,239.617 431.5,240C 428.833,240.667 426.167,240.667 423.5,240C 421.859,238.871 420.859,237.371 420.5,235.5C 419.08,232.739 418.413,229.739 418.5,226.5C 423.267,226.474 427.934,225.807 432.5,224.5C 432.553,227.14 433.22,229.64 434.5,232C 433.382,234.059 432.715,236.226 432.5,238.5 Z"/></g>
<g><path style="opacity:1" fill="#853054" d="M 345.5,218.5 C 349.167,218.5 352.833,218.5 356.5,218.5C 356.808,220.924 356.474,223.257 355.5,225.5C 348.67,229.081 342.003,232.914 335.5,237C 323.962,240.81 321.796,237.976 329,228.5C 334.014,224.248 339.514,220.915 345.5,218.5 Z"/></g>
<g><path style="opacity:0.608" fill="#fff9c3" d="M 162.5,234.5 C 161.492,236.544 160.492,238.544 159.5,240.5C 159.5,238.5 159.5,236.5 159.5,234.5C 160.5,234.5 161.5,234.5 162.5,234.5 Z"/></g>
<g><path style="opacity:1" fill="#fdf8c5" d="M 181.5,232.5 C 180.943,234.949 180.943,237.282 181.5,239.5C 182.736,238.754 184.07,238.421 185.5,238.5C 183.574,240.293 181.241,241.293 178.5,241.5C 178.747,238.146 179.747,235.146 181.5,232.5 Z"/></g>
<g><path style="opacity:1" fill="#fefbd7" d="M 313.5,233.5 C 315.143,233.48 316.476,234.147 317.5,235.5C 318.04,238.786 319.206,241.786 321,244.5C 321.743,242.355 322.576,242.189 323.5,244C 323.006,245.462 322.673,246.962 322.5,248.5C 323.927,253.772 324.927,259.105 325.5,264.5C 323.091,253.614 319.091,243.28 313.5,233.5 Z"/></g>
<g><path style="opacity:1" fill="#db9c1d" d="M 230.5,257.5 C 229.249,255.275 229.582,253.109 231.5,251C 238.076,249.623 244.743,249.123 251.5,249.5C 251.64,247.876 250.973,246.71 249.5,246C 240.418,244.238 232.085,245.738 224.5,250.5C 224.511,248.983 225.177,247.816 226.5,247C 236.141,240.916 245.641,241.083 255,247.5C 255.185,249.826 254.018,251.16 251.5,251.5C 246.2,250.431 240.866,250.264 235.5,251C 232.466,252.191 230.799,254.358 230.5,257.5 Z"/></g>
<g><path style="opacity:1" fill="#813d58" d="M 336.5,259.5 C 339.038,259.507 341.538,259.841 344,260.5C 348.557,258.318 353.39,256.985 358.5,256.5C 358.5,254.833 358.5,253.167 358.5,251.5C 355.235,251.792 352.235,251.125 349.5,249.5C 345.516,251.163 341.516,252.829 337.5,254.5C 342.691,249.163 349.025,247.329 356.5,249C 358.623,249.815 360.623,250.815 362.5,252C 361.393,256.107 358.726,258.44 354.5,259C 350.195,260.268 345.862,261.435 341.5,262.5C 339.308,262.243 337.641,261.243 336.5,259.5 Z"/></g>
<g><path style="opacity:1" fill="#842f54" d="M 119.5,248.5 C 126.354,248.505 133.021,249.671 139.5,252C 143.104,253.334 144.271,255.834 143,259.5C 132.552,263.556 123.885,261.222 117,252.5C 117.193,250.918 118.026,249.584 119.5,248.5 Z"/></g>
<g><path style="opacity:1" fill="#872a53" d="M 336.5,259.5 C 335.322,257.662 335.655,255.995 337.5,254.5C 341.516,252.829 345.516,251.163 349.5,249.5C 352.235,251.125 355.235,251.792 358.5,251.5C 358.5,253.167 358.5,254.833 358.5,256.5C 353.39,256.985 348.557,258.318 344,260.5C 341.538,259.841 339.038,259.507 336.5,259.5 Z"/></g>
<g><path style="opacity:1" fill="#fffadb" d="M 472.5,225.5 C 474.935,243.356 474.768,261.356 472,279.5C 471.581,283.392 470.748,287.058 469.5,290.5C 471.362,268.876 472.362,247.209 472.5,225.5 Z"/></g>
<g><path style="opacity:1" fill="#dd971f" d="M 231.5,258.5 C 232.203,260.716 233.536,262.549 235.5,264C 240.091,265.864 244.757,267.53 249.5,269C 260.336,275.088 262.336,283.255 255.5,293.5C 257.312,288.717 257.812,283.717 257,278.5C 255.681,276.513 253.848,275.346 251.5,275C 250.547,273.045 249.213,271.378 247.5,270C 242.475,269.847 237.808,268.514 233.5,266C 230.922,263.783 230.256,261.283 231.5,258.5 Z"/></g>
<g><path style="opacity:1" fill="#fefce2" d="M 325.5,265.5 C 326.496,265.414 327.329,265.748 328,266.5C 328.962,273.991 328.462,281.324 326.5,288.5C 326.771,290.38 326.104,291.713 324.5,292.5C 326.447,283.547 326.78,274.547 325.5,265.5 Z"/></g>
<g><path style="opacity:1" fill="#e28c2b" d="M 230.5,257.5 C 231.167,257.5 231.5,257.833 231.5,258.5C 230.256,261.283 230.922,263.783 233.5,266C 237.808,268.514 242.475,269.847 247.5,270C 249.213,271.378 250.547,273.045 251.5,275C 253.848,275.346 255.681,276.513 257,278.5C 257.812,283.717 257.312,288.717 255.5,293.5C 255.5,294.167 255.167,294.5 254.5,294.5C 252.139,294.674 249.806,295.007 247.5,295.5C 247.281,294.325 247.614,293.325 248.5,292.5C 250.741,291.968 252.241,290.635 253,288.5C 253.995,285.874 254.328,283.207 254,280.5C 248.767,274.702 242.267,271.702 234.5,271.5C 223.332,268.166 219.999,261.166 224.5,250.5C 232.085,245.738 240.418,244.238 249.5,246C 250.973,246.71 251.64,247.876 251.5,249.5C 244.743,249.123 238.076,249.623 231.5,251C 229.582,253.109 229.249,255.275 230.5,257.5 Z"/></g>
<g><path style="opacity:1" fill="#fefcda" d="M 154.5,251.5 C 148.013,269.55 149.347,286.883 158.5,303.5C 156.545,302.385 154.712,301.052 153,299.5C 151.846,295.546 151.013,291.546 150.5,287.5C 148.094,277.167 148.427,266.834 151.5,256.5C 152.325,254.64 153.325,252.974 154.5,251.5 Z"/></g>
<g><path style="opacity:1" fill="#fffbdd" d="M 30.5,185.5 C 27.9016,197.987 25.7349,210.654 24,223.5C 22,239.5 22,255.5 24,271.5C 26.1049,281.792 27.6049,292.125 28.5,302.5C 23.3128,284.496 20.9795,265.996 21.5,247C 21.2064,225.885 24.2064,205.385 30.5,185.5 Z"/></g>
<g><path style="opacity:1" fill="#852e54" d="M 141.5,277.5 C 146.879,289.927 152.545,302.26 158.5,314.5C 164.044,314.498 169.711,314.664 175.5,315C 188.071,322.618 201.405,328.618 215.5,333C 220.077,335.239 224.411,337.905 228.5,341C 231.88,344.94 234.88,349.106 237.5,353.5C 245.892,343.297 256.225,335.463 268.5,330C 280.156,326.337 291.156,321.337 301.5,315C 306.851,314.737 312.184,314.737 317.5,315C 324.537,305.093 329.537,294.26 332.5,282.5C 333.67,279.149 335.17,275.815 337,272.5C 341.515,268.204 346.681,267.37 352.5,270C 354.761,272.772 356.261,275.938 357,279.5C 356.592,327.815 335.426,363.982 293.5,388C 289.443,391.391 286.11,395.391 283.5,400C 281.323,401.202 278.989,401.702 276.5,401.5C 275.873,396.48 276.706,391.813 279,387.5C 281.167,385.333 283.333,383.167 285.5,381C 321.376,361.284 342.043,331.118 347.5,290.5C 347.701,286.627 347.034,282.961 345.5,279.5C 338.587,300.002 328.587,318.669 315.5,335.5C 309.964,334.04 307.964,330.373 309.5,324.5C 308.209,324.263 307.209,324.596 306.5,325.5C 288.178,329.987 271.512,337.82 256.5,349C 247.461,357.107 243.294,367.274 244,379.5C 239.148,385.327 235.482,384.66 233,377.5C 230.998,370.142 228.998,362.809 227,355.5C 221.611,348.447 214.778,343.28 206.5,340C 193.644,335.325 180.977,330.158 168.5,324.5C 168.468,329.93 170.801,334.43 175.5,338C 182.663,341.747 189.663,345.747 196.5,350C 198.824,352.481 200.491,355.314 201.5,358.5C 201.5,359.5 201.5,360.5 201.5,361.5C 199.833,361.5 198.167,361.5 196.5,361.5C 182.391,356.583 170.558,348.25 161,336.5C 148.117,319.07 138.117,300.07 131,279.5C 129.437,284.718 129.104,290.051 130,295.5C 133.717,313.651 140.384,330.651 150,346.5C 161.777,361.29 175.943,373.123 192.5,382C 199.173,386.847 201.839,393.347 200.5,401.5C 197.813,401.664 195.146,401.497 192.5,401C 191.195,396.734 188.862,393.067 185.5,390C 175.482,383.658 165.816,376.825 156.5,369.5C 141.251,354.384 130.751,336.384 125,315.5C 123.125,308.877 121.458,302.21 120,295.5C 119.333,288.833 119.333,282.167 120,275.5C 122.581,268.813 127.414,266.646 134.5,269C 137.423,271.416 139.757,274.25 141.5,277.5 Z"/></g>
<g><path style="opacity:1" fill="#de9223" d="M 234.5,271.5 C 242.267,271.702 248.767,274.702 254,280.5C 254.328,283.207 253.995,285.874 253,288.5C 252.241,290.635 250.741,291.968 248.5,292.5C 247.614,293.325 247.281,294.325 247.5,295.5C 249.806,295.007 252.139,294.674 254.5,294.5C 245.771,300.135 236.438,300.969 226.5,297C 225.333,295.833 224.167,294.667 223,293.5C 222.383,292.551 222.549,291.718 223.5,291C 224.667,290.833 225.833,290.667 227,290.5C 232.438,291.923 237.938,292.423 243.5,292C 252.989,288.69 253.989,283.69 246.5,277C 242.716,274.471 238.716,272.638 234.5,271.5 Z"/></g>
<g><path style="opacity:1" fill="#fffbe3" d="M 465.5,307.5 C 461.785,322.987 456.118,337.654 448.5,351.5C 448.201,349.396 448.534,347.396 449.5,345.5C 451.625,342.387 453.459,339.054 455,335.5C 455.333,332.833 455.667,330.167 456,327.5C 458.04,325.723 459.54,323.556 460.5,321C 459.591,319.211 459.424,317.377 460,315.5C 462.117,312.909 463.95,310.242 465.5,307.5 Z"/></g>
<g><path style="opacity:1" fill="#fffadb" d="M 28.5,303.5 C 29.6444,305.1 30.8111,306.767 32,308.5C 33,312.833 34,317.167 35,321.5C 38.3083,327.58 41.1417,333.913 43.5,340.5C 44.4656,342.396 44.7989,344.396 44.5,346.5C 37.2502,332.979 31.9169,318.645 28.5,303.5 Z"/></g>
<g><path style="opacity:1" fill="#fcf7f8" d="M 141.5,277.5 C 144.368,279.212 146.368,281.712 147.5,285C 147.167,285.333 146.833,285.667 146.5,286C 147.563,287.188 148.897,287.688 150.5,287.5C 151.013,291.546 151.846,295.546 153,299.5C 154.712,301.052 156.545,302.385 158.5,303.5C 159.167,303.5 159.5,303.833 159.5,304.5C 159.5,305.5 159.5,306.5 159.5,307.5C 164.167,307.5 168.833,307.5 173.5,307.5C 175.38,307.229 176.713,307.896 177.5,309.5C 177.5,310.5 177.5,311.5 177.5,312.5C 182.133,314.156 186.8,315.823 191.5,317.5C 192.398,319.627 194.064,320.794 196.5,321C 196.167,321.333 195.833,321.667 195.5,322C 197.5,322.333 199.5,322.667 201.5,323C 200.833,323.333 200.167,323.667 199.5,324C 200.833,324.667 200.833,325.333 199.5,326C 202.167,325.667 204.833,325.333 207.5,325C 209.712,327.333 212.212,328.166 215,327.5C 216.706,328.308 217.539,329.641 217.5,331.5C 220.272,330.629 222.938,330.629 225.5,331.5C 225.833,331.5 226.167,331.5 226.5,331.5C 227.539,333.531 229.205,334.864 231.5,335.5C 232.881,340.057 235.881,341.891 240.5,341C 245.033,335.595 250.366,331.429 256.5,328.5C 262.005,327.667 267.005,325.667 271.5,322.5C 271.833,322.5 272.167,322.5 272.5,322.5C 275.947,322.186 279.28,321.352 282.5,320C 290.465,316.007 298.465,312.007 306.5,308C 309.992,308.07 312.992,307.237 315.5,305.5C 319.099,303.737 321.932,301.07 324,297.5C 324.494,295.866 324.66,294.199 324.5,292.5C 326.104,291.713 326.771,290.38 326.5,288.5C 328.485,286.576 330.485,284.576 332.5,282.5C 329.537,294.26 324.537,305.093 317.5,315C 312.184,314.737 306.851,314.737 301.5,315C 291.156,321.337 280.156,326.337 268.5,330C 256.225,335.463 245.892,343.297 237.5,353.5C 234.88,349.106 231.88,344.94 228.5,341C 224.411,337.905 220.077,335.239 215.5,333C 201.405,328.618 188.071,322.618 175.5,315C 169.711,314.664 164.044,314.498 158.5,314.5C 152.545,302.26 146.879,289.927 141.5,277.5 Z"/></g>
<g><path style="opacity:1" fill="#fefccf" d="M 271.5,322.5 C 267.005,325.667 262.005,327.667 256.5,328.5C 261.105,325.738 266.105,323.738 271.5,322.5 Z"/></g>
<g><path style="opacity:1" fill="#fdfce6" d="M 191.5,317.5 C 200.374,320.958 209.374,324.125 218.5,327C 221.239,328.026 223.572,329.526 225.5,331.5C 222.938,330.629 220.272,330.629 217.5,331.5C 217.539,329.641 216.706,328.308 215,327.5C 212.212,328.166 209.712,327.333 207.5,325C 204.833,325.333 202.167,325.667 199.5,326C 200.833,325.333 200.833,324.667 199.5,324C 200.167,323.667 200.833,323.333 201.5,323C 199.5,322.667 197.5,322.333 195.5,322C 195.833,321.667 196.167,321.333 196.5,321C 194.064,320.794 192.398,319.627 191.5,317.5 Z"/></g>
<g><path style="opacity:1" fill="#fefbd2" d="M 315.5,305.5 C 312.992,307.237 309.992,308.07 306.5,308C 298.465,312.007 290.465,316.007 282.5,320C 279.28,321.352 275.947,322.186 272.5,322.5C 284.593,316.625 296.926,310.959 309.5,305.5C 311.482,306.623 313.482,306.623 315.5,305.5 Z"/></g>
<g><path style="opacity:1" fill="#fcfacf" d="M 177.5,309.5 C 182.429,311.775 187.096,314.441 191.5,317.5C 186.8,315.823 182.133,314.156 177.5,312.5C 177.5,311.5 177.5,310.5 177.5,309.5 Z"/></g>
<g><path style="opacity:1" fill="#fbf8b1" d="M 159.5,304.5 C 160.289,304.783 160.956,305.283 161.5,306C 165.688,306.176 169.688,306.676 173.5,307.5C 168.833,307.5 164.167,307.5 159.5,307.5C 159.5,306.5 159.5,305.5 159.5,304.5 Z"/></g>
<g><path style="opacity:1" fill="#fdf9c6" d="M 324.5,292.5 C 324.66,294.199 324.494,295.866 324,297.5C 321.932,301.07 319.099,303.737 315.5,305.5C 319.264,301.618 322.264,297.285 324.5,292.5 Z"/></g>
<g><path style="opacity:1" fill="#fefabf" d="M 226.5,331.5 C 228.754,332.124 230.421,333.457 231.5,335.5C 229.205,334.864 227.539,333.531 226.5,331.5 Z"/></g>
<g><path style="opacity:1" fill="#fdfccf" d="M 256.5,328.5 C 250.366,331.429 245.033,335.595 240.5,341C 235.881,341.891 232.881,340.057 231.5,335.5C 233.629,337.382 235.962,339.049 238.5,340.5C 242.019,337.146 245.686,333.98 249.5,331C 251.65,329.589 253.984,328.755 256.5,328.5 Z"/></g>
<g><path style="opacity:1" fill="#843b59" d="M 306.5,325.5 C 307.209,324.596 308.209,324.263 309.5,324.5C 307.964,330.373 309.964,334.04 315.5,335.5C 313.57,339.1 310.903,342.1 307.5,344.5C 307.5,343.167 307.5,341.833 307.5,340.5C 308.5,340.5 309.5,340.5 310.5,340.5C 310.33,339.178 310.663,338.011 311.5,337C 307.881,335.258 304.881,336.091 302.5,339.5C 299.611,340.389 296.945,341.722 294.5,343.5C 293.571,344.689 293.238,346.022 293.5,347.5C 290.724,348.114 288.057,348.281 285.5,348C 284.527,350.547 282.693,352.047 280,352.5C 278.007,354.818 276.841,357.484 276.5,360.5C 280.048,359.298 283.715,358.631 287.5,358.5C 283.622,361.013 279.289,362.346 274.5,362.5C 275.205,356.59 277.872,351.757 282.5,348C 288.707,344.397 295.04,341.064 301.5,338C 305.212,335.407 307.545,331.907 308.5,327.5C 308.253,326.287 307.586,325.62 306.5,325.5 Z"/></g>
<g><path style="opacity:1" fill="#862c53" d="M 307.5,344.5 C 301.668,350.327 295.002,354.994 287.5,358.5C 283.715,358.631 280.048,359.298 276.5,360.5C 276.841,357.484 278.007,354.818 280,352.5C 282.693,352.047 284.527,350.547 285.5,348C 288.057,348.281 290.724,348.114 293.5,347.5C 293.238,346.022 293.571,344.689 294.5,343.5C 296.945,341.722 299.611,340.389 302.5,339.5C 304.881,336.091 307.881,335.258 311.5,337C 310.663,338.011 310.33,339.178 310.5,340.5C 309.5,340.5 308.5,340.5 307.5,340.5C 307.5,341.833 307.5,343.167 307.5,344.5 Z"/></g>
<g><path style="opacity:1" fill="#b38c9b" d="M 201.5,358.5 C 202.434,359.568 202.768,360.901 202.5,362.5C 200.265,362.795 198.265,362.461 196.5,361.5C 198.167,361.5 199.833,361.5 201.5,361.5C 201.5,360.5 201.5,359.5 201.5,358.5 Z"/></g>
<g><path style="opacity:1" fill="#fff9d9" d="M 388.5,424.5 C 383.368,429.235 377.701,433.235 371.5,436.5C 372.234,435.292 372.567,433.959 372.5,432.5C 375.991,432.517 378.658,431.017 380.5,428C 381.448,427.517 382.448,427.351 383.5,427.5C 383.5,426.5 383.5,425.5 383.5,424.5C 385.167,424.5 386.833,424.5 388.5,424.5 Z"/></g>
<g><path style="opacity:1" fill="#fef9dd" d="M 132.5,441.5 C 134.801,442.06 137.134,442.56 139.5,443C 138.167,443.667 138.167,444.333 139.5,445C 142.167,446 144.833,447 147.5,448C 148.252,448.671 148.586,449.504 148.5,450.5C 142.511,448.509 137.177,445.509 132.5,441.5 Z"/></g>
<g><path style="opacity:1" fill="#fffadf" d="M 350.5,448.5 C 345.919,451.622 340.919,453.956 335.5,455.5C 336.507,453.478 338.174,452.145 340.5,451.5C 343.684,449.89 347.017,448.89 350.5,448.5 Z"/></g>
<g><path style="opacity:1" fill="#fffbdf" d="M 335.5,455.5 C 325.334,460.334 314.667,464.001 303.5,466.5C 307.609,463.889 311.942,461.722 316.5,460C 317.899,459.405 319.232,459.572 320.5,460.5C 323.886,459.104 327.219,457.604 330.5,456C 332.134,455.506 333.801,455.34 335.5,455.5 Z"/></g>
<g><path style="opacity:0.993" fill="#fffada" d="M 185.5,464.5 C 196.934,466.145 208.267,468.311 219.5,471C 228.475,471.937 237.475,472.437 246.5,472.5C 265.348,472.082 284.015,470.082 302.5,466.5C 284.671,471.669 266.337,474.002 247.5,473.5C 226.201,473.947 205.534,470.947 185.5,464.5 Z"/></g>
</svg>
